TITLE ""
FILE "Disc2Track67.mp3" MP3
  TRACK 01 AUDIO
    TITLE "Disc2Track67_01"
    INDEX 01 00:00:00
  TRACK 02 AUDIO
    TITLE "Disc2Track67_02"
    INDEX 01 00:01:10
  TRACK 03 AUDIO
    TITLE "Disc2Track67_03"
    INDEX 01 00:05:15
  TRACK 04 AUDIO
    TITLE "Disc2Track67_04"
    INDEX 01 00:06:34
  TRACK 05 AUDIO
    TITLE "Disc2Track67_05"
    INDEX 01 00:08:67
  TRACK 06 AUDIO
    TITLE "Disc2Track67_06"
    INDEX 01 00:09:23
  TRACK 07 AUDIO
    TITLE "Disc2Track67_07"
    INDEX 01 00:10:54
  TRACK 08 AUDIO
    TITLE "Disc2Track67_08"
    INDEX 01 00:13:38
  TRACK 09 AUDIO
    TITLE "Disc2Track67_09"
    INDEX 01 00:14:67
  TRACK 10 AUDIO
    TITLE "Disc2Track67_10"
    INDEX 01 00:20:23
  TRACK 11 AUDIO
    TITLE "Disc2Track67_11"
    INDEX 01 00:20:56
  TRACK 12 AUDIO
    TITLE "Disc2Track67_12"
    INDEX 01 00:22:24
  TRACK 13 AUDIO
    TITLE "Disc2Track67_13"
    INDEX 01 00:24:60
  TRACK 14 AUDIO
    TITLE "Disc2Track67_14"
    INDEX 01 00:26:29
  TRACK 15 AUDIO
    TITLE "Disc2Track67_15"
    INDEX 01 00:30:19
  TRACK 16 AUDIO
    TITLE "Disc2Track67_16"
    INDEX 01 00:30:51
  TRACK 17 AUDIO
    TITLE "Disc2Track67_17"
    INDEX 01 00:32:14
  TRACK 18 AUDIO
    TITLE "Disc2Track67_18"
    INDEX 01 00:33:61
  TRACK 19 AUDIO
    TITLE "Disc2Track67_19"
    INDEX 01 00:35:26
  TRACK 20 AUDIO
    TITLE "Disc2Track67_20"
    INDEX 01 00:35:64
  TRACK 21 AUDIO
    TITLE "Disc2Track67_21"
    INDEX 01 00:37:11
  TRACK 22 AUDIO
    TITLE "Disc2Track67_22"
    INDEX 01 00:39:24
  TRACK 23 AUDIO
    TITLE "Disc2Track67_23"
    INDEX 01 00:40:45
  TRACK 24 AUDIO
    TITLE "Disc2Track67_24"
    INDEX 01 00:45:15
  TRACK 25 AUDIO
    TITLE "Disc2Track67_25"
    INDEX 01 00:45:46
  TRACK 26 AUDIO
    TITLE "Disc2Track67_26"
    INDEX 01 00:46:73
  TRACK 27 AUDIO
    TITLE "Disc2Track67_27"
    INDEX 01 00:48:62
  TRACK 28 AUDIO
    TITLE "Disc2Track67_28"
    INDEX 01 00:50:14
  TRACK 29 AUDIO
    TITLE "Disc2Track67_29"
    INDEX 01 00:50:49
  TRACK 30 AUDIO
    TITLE "Disc2Track67_30"
    INDEX 01 00:51:66
  TRACK 31 AUDIO
    TITLE "Disc2Track67_31"
    INDEX 01 00:57:55
  TRACK 32 AUDIO
    TITLE "Disc2Track67_32"
    INDEX 01 00:58:68
  TRACK 33 AUDIO
    TITLE "Disc2Track67_33"
    INDEX 01 01:01:51
  TRACK 34 AUDIO
    TITLE "Disc2Track67_34"
    INDEX 01 01:02:06
  TRACK 35 AUDIO
    TITLE "Disc2Track67_35"
    INDEX 01 01:03:34
  TRACK 36 AUDIO
    TITLE "Disc2Track67_36"
    INDEX 01 01:07:01
  TRACK 37 AUDIO
    TITLE "Disc2Track67_37"
    INDEX 01 01:08:28
  TRACK 38 AUDIO
    TITLE "Disc2Track67_38"
    INDEX 01 01:11:12
  TRACK 39 AUDIO
    TITLE "Disc2Track67_39"
    INDEX 01 01:11:42
  TRACK 40 AUDIO
    TITLE "Disc2Track67_40"
    INDEX 01 01:13:03
  TRACK 41 AUDIO
    TITLE "Disc2Track67_41"
    INDEX 01 01:15:22
  TRACK 42 AUDIO
    TITLE "Disc2Track67_42"
    INDEX 01 01:16:60
  TRACK 43 AUDIO
    TITLE "Disc2Track67_43"
    INDEX 01 01:17:11
  TRACK 44 AUDIO
    TITLE "Disc2Track67_44"
    INDEX 01 01:18:54
  TRACK 45 AUDIO
    TITLE "Disc2Track67_45"
    INDEX 01 01:19:57
  TRACK 46 AUDIO
    TITLE "Disc2Track67_46"
    INDEX 01 01:21:24
